HIERARCHY
ROOT Hips
{
	OFFSET 0.000000 0.000000 0.000000
	CHANNELS 6 Xposition Yposition Zposition Zrotation Yrotation Xrotation 
	JOINT LHipJoint
	{
		OFFSET 0.000000 0.000000 0.000000
		CHANNELS 3 Zrotation Yrotation Xrotation
		JOINT LeftUpLeg
		{
			OFFSET 1.363060 -1.794630 0.839290
			CHANNELS 3 Zrotation Yrotation Xrotation
			JOINT LeftLeg
			{
				OFFSET 2.448110 -6.726130 0.000000
				CHANNELS 3 Zrotation Yrotation Xrotation
				JOINT LeftFoot
				{
					OFFSET 2.562200 -7.039590 0.000000
					CHANNELS 3 Zrotation Yrotation Xrotation
					JOINT LeftToeBase
					{
						OFFSET 0.157640 -0.433110 2.322550
						CHANNELS 3 Zrotation Yrotation Xrotation
						End Site
						{
							OFFSET 0.000000 0.000000 0.000000
						}
					}
				}
			}
		}
	}
	JOINT RHipJoint
	{
		OFFSET 0.000000 0.000000 0.000000
		CHANNELS 3 Zrotation Yrotation Xrotation
		JOINT RightUpLeg
		{
			OFFSET -1.305520 -1.794630 0.839290
			CHANNELS 3 Zrotation Yrotation Xrotation
			JOINT RightLeg
			{
				OFFSET -2.542530 -6.985550 0.000000
				CHANNELS 3 Zrotation Yrotation Xrotation
				JOINT RightFoot
				{
					OFFSET -2.568260 -7.056230 0.000000
					CHANNELS 3 Zrotation Yrotation Xrotation
					JOINT RightToeBase
					{
						OFFSET -0.164730 -0.452590 2.363150
						CHANNELS 3 Zrotation Yrotation Xrotation
						End Site
						{
							OFFSET 0.000000 0.000000 0.000000
						}
					}
				}
			}
		}
	}
	JOINT LowerBack
	{
		OFFSET 0.000000 0.000000 0.000000
		CHANNELS 3 Zrotation Yrotation Xrotation
		JOINT Spine
		{
			OFFSET 0.028270 2.035590 -0.193380
			CHANNELS 3 Zrotation Yrotation Xrotation
			JOINT Spine1
			{
				OFFSET 0.056720 2.048850 -0.042750
				CHANNELS 3 Zrotation Yrotation Xrotation
				JOINT Neck
				{
					OFFSET 0.000000 0.000000 0.000000
					CHANNELS 3 Zrotation Yrotation Xrotation
					JOINT Neck1
					{
						OFFSET -0.054170 1.746240 0.172020
						CHANNELS 3 Zrotation Yrotation Xrotation
						JOINT Head
						{
							OFFSET 0.104070 1.761360 -0.123970
							CHANNELS 3 Zrotation Yrotation Xrotation
							End Site
							{
								OFFSET 0.000000 0.000000 0.000000
							}
						}
					}
				}
				JOINT LeftShoulder
				{
					OFFSET 0.000000 0.000000 0.000000
					CHANNELS 3 Zrotation Yrotation Xrotation
					JOINT LeftArm
					{
						OFFSET 3.362410 1.200890 -0.311210
						CHANNELS 3 Zrotation Yrotation Xrotation
						JOINT LeftForeArm
						{
							OFFSET 4.983000 -0.000000 -0.000000
							CHANNELS 3 Zrotation Yrotation Xrotation
							JOINT LeftHand
							{
								OFFSET 3.483560 -0.000000 -0.000000
								CHANNELS 3 Zrotation Yrotation Xrotation
								JOINT LeftFingerBase
								{
									OFFSET 0.000000 0.000000 0.000000
									CHANNELS 3 Zrotation Yrotation Xrotation
									JOINT LeftHandIndex1
									{
										OFFSET 0.715260 -0.000000 -0.000000
										CHANNELS 3 Zrotation Yrotation Xrotation
										End Site
										{
											OFFSET 0.000000 0.000000 0.000000
										}
									}
								}
								JOINT LThumb
								{
									OFFSET 0.000000 0.000000 0.000000
									CHANNELS 3 Zrotation Yrotation Xrotation
									End Site
									{
										OFFSET 0.000000 0.000000 0.000000
									}
								}
							}
						}
					}
				}
				JOINT RightShoulder
				{
					OFFSET 0.000000 0.000000 0.000000
					CHANNELS 3 Zrotation Yrotation Xrotation
					JOINT RightArm
					{
						OFFSET -3.136600 1.374050 -0.404650
						CHANNELS 3 Zrotation Yrotation Xrotation
						JOINT RightForeArm
						{
							OFFSET -5.241900 -0.000000 -0.000000
							CHANNELS 3 Zrotation Yrotation Xrotation
							JOINT RightHand
							{
								OFFSET -3.444170 -0.000000 -0.000000
								CHANNELS 3 Zrotation Yrotation Xrotation
								JOINT RightFingerBase
								{
									OFFSET 0.000000 0.000000 0.000000
									CHANNELS 3 Zrotation Yrotation Xrotation
									JOINT RightHandIndex1
									{
										OFFSET -0.622530 -0.000000 -0.000000
										CHANNELS 3 Zrotation Yrotation Xrotation
										End Site
										{
											OFFSET 0.000000 0.000000 0.000000
										}
									}
								}
								JOINT RThumb
								{
									OFFSET 0.000000 0.000000 0.000000
									CHANNELS 3 Zrotation Yrotation Xrotation
									End Site
									{
										OFFSET 0.000000 0.000000 0.000000
									}
								}
							}
						}
					}
				}
			}
		}
	}
}
MOTION
Frames: 8
Frame Time: 0.008333
-0.501282 17.607793 -45.848248 -0.867665 -6.025184 19.319455 -2.039428 -4.108970 -4.916479 -11.054729 -2.627790 -43.348128 -0.304141 9.341862 23.018895 -1.720907 9.889529 1.848908 0.135000 -2.368100 -6.524200 1.222967 1.749162 -1.048735 20.429814 -4.213815 -17.268423 -1.169451 -9.322817 26.036183 -3.105830 25.034546 -11.138095 -0.098000 -2.019200 5.558800 2.195603 2.231622 -6.894735 0.856533 2.144025 -8.971315 -0.597717 1.453070 0.467573 -1.143093 -1.899236 -7.685455 1.465828 -2.513048 10.020944 -1.086300 -1.098100 2.879900 13.426524 8.159523 0.787194 -101.658423 15.981098 -6.434129 3.537936 -12.603383 -0.203310 -1.102588 -0.381624 35.782767 9.888765 -16.063783 -2.774700 -7.125000 0.000000 0.000000 -11.484900 14.880500 8.322000 -13.093215 -7.283751 -0.338775 96.373700 6.132859 41.125032 -34.010916 50.100495 -14.194014 0.018651 -1.789591 -25.445897 -35.733224 -42.594860 24.695300 7.125000 0.000000 0.000000 2.823800 -76.731700 -2.100600 
-0.494505 17.587462 -45.614603 -0.942718 -6.684679 19.414580 -2.126455 -4.167253 -5.015597 -10.452500 -2.622885 -43.053566 -0.795184 8.284906 19.950109 -1.713470 9.911676 2.009948 0.098500 -2.024000 -5.571900 1.270299 1.708036 -0.956041 20.185091 -4.499081 -16.258602 -1.048432 -8.990868 25.148366 -3.025138 25.634777 -10.593141 -0.104600 -2.085100 5.740800 2.063085 2.367096 -7.102357 0.858002 2.310742 -8.905467 -0.420262 1.555350 0.702913 -1.301622 -1.789558 -7.770489 1.512623 -2.356804 9.956800 -1.034000 -1.024900 2.864000 13.422258 8.190366 0.850050 -101.865307 16.896698 -6.445931 3.603345 -12.804753 -0.232421 -1.082406 -0.389839 35.159681 9.853875 -15.648902 -2.690600 -7.125000 0.000000 0.000000 -11.524400 15.281700 8.250600 -13.105861 -7.311372 -0.416214 96.138877 7.407236 39.465939 -32.849671 49.358930 -13.582119 0.267686 -1.614185 -18.164662 -18.070467 -36.259300 10.354400 7.125000 0.000000 0.000000 19.512800 -64.913200 -9.568500 
-0.482780 17.579932 -45.376871 -1.106791 -6.981090 19.491048 -2.176510 -4.211613 -5.105177 -9.566006 -3.162546 -42.779542 -1.131059 7.445512 17.553856 -1.636150 9.556455 1.449467 0.029700 -1.112000 -3.056900 1.311378 1.645221 -0.834446 20.118476 -5.073465 -15.229990 -0.925457 -8.632370 24.189630 -2.951212 26.180228 -10.170502 -0.096700 -2.005000 5.519600 2.170151 2.450411 -7.076128 0.867992 2.392033 -8.962030 -0.405659 1.610478 0.521297 -1.373348 -1.749769 -7.552042 1.463927 -2.302852 9.876464 -1.032500 -1.002300 2.783000 13.382580 8.195283 0.887315 -101.972087 18.147338 -6.689008 3.695929 -13.004180 -0.248527 -1.027556 -0.498166 34.712385 11.546047 -14.717306 -2.903600 -7.125000 0.000000 0.000000 -10.464800 16.160600 7.262200 -13.060640 -7.300094 -0.463381 95.925371 7.981554 39.555889 -34.447452 50.435218 -14.627297 0.292893 -1.608628 -16.412116 -17.330679 -39.133017 10.643500 7.125000 0.000000 0.000000 23.511200 -67.320000 -12.914900 
-0.470409 17.567992 -45.142796 -1.248320 -7.103519 19.617194 -2.236489 -4.257467 -5.186093 -8.990407 -3.389082 -42.513908 -1.454240 6.464058 14.838712 -1.509562 9.112514 1.627202 0.001700 -0.265800 -0.730400 1.352399 1.588830 -0.727552 20.052831 -5.679609 -14.369227 -0.840811 -8.346452 23.438523 -2.877926 26.691059 -9.805622 -0.103000 -2.069500 5.697900 2.359258 2.501451 -7.166224 0.846614 2.420043 -8.997303 -0.567361 1.619240 0.431709 -1.254266 -1.789399 -7.237520 1.280344 -2.356219 9.720332 -1.127500 -1.032700 2.632800 13.354845 8.203417 0.914257 -101.956017 19.246092 -7.206896 3.745624 -13.099680 -0.243096 -1.025739 -0.542557 34.548236 12.303501 -14.689432 -3.070400 -7.125000 0.000000 0.000000 -9.964800 16.176300 6.900400 -13.026678 -7.300990 -0.507343 95.852764 8.681911 39.474275 -36.102997 51.496687 -15.719704 0.359987 -1.630234 -16.248083 -15.940986 -43.065853 10.619200 7.125000 0.000000 0.000000 30.891900 -70.215500 -19.214500 
-0.454058 17.537442 -44.906569 -1.362502 -7.393397 19.733376 -2.255847 -4.285463 -5.241696 -8.989467 -2.971737 -42.696307 -1.689211 5.587170 12.474645 -1.365476 8.681998 2.370219 0.069300 -1.699000 -4.674400 1.383560 1.524126 -0.600813 19.875530 -6.225330 -13.564657 -0.769161 -8.065458 22.725519 -2.764632 27.353208 -9.243346 -0.114400 -2.180600 6.005000 2.587114 2.584703 -6.615137 0.780519 2.532764 -9.253848 -0.884563 1.661741 -0.437461 -1.197565 -1.687589 -7.113871 1.239305 -2.224502 9.808560 -1.141300 -0.966100 2.700200 13.272364 8.160348 0.890855 -101.837367 20.633216 -8.050869 3.773544 -13.046027 -0.224282 -1.051700 -0.541131 34.700484 12.433523 -15.131125 -3.202000 -7.125000 0.000000 0.000000 -9.857500 15.739600 6.918400 -12.990099 -7.237242 -0.537745 95.638160 8.656361 40.597835 -35.375831 51.050970 -15.259944 0.338506 -1.451504 -14.611326 -16.581620 -30.554123 8.200900 7.125000 0.000000 0.000000 16.319300 -59.273300 -5.785500 
-0.440289 17.492369 -44.667438 -1.455488 -7.843126 19.873063 -2.243205 -4.322492 -5.335625 -9.312061 -2.181351 -43.119635 -1.865321 4.789808 10.348042 -1.230082 8.366222 3.448649 0.632600 -5.089200 -14.163000 1.397122 1.461231 -0.522342 19.620424 -6.357937 -12.622033 -0.699017 -7.835768 22.129474 -2.737679 27.485143 -9.091470 -0.066100 -1.658800 4.563600 2.743245 2.742797 -6.917995 0.694707 2.696829 -9.171144 -1.106515 1.727316 -0.097304 -1.247080 -1.551850 -7.287614 1.386818 -2.049424 9.694278 -1.052900 -0.879100 2.674400 13.265988 8.178462 0.920846 -101.915576 20.875151 -10.461720 3.549793 -12.528931 -0.164216 -1.092184 -0.522151 36.366423 12.479652 -15.468432 -3.286700 -7.125000 0.000000 0.000000 -9.814100 15.422700 6.955000 -13.017525 -7.282021 -0.571653 95.590480 9.579842 41.313527 -35.812256 51.373369 -15.554867 0.347922 -1.408500 -16.435793 -18.148748 -26.831016 7.953200 7.125000 0.000000 0.000000 12.559000 -55.990300 -3.424500 
-0.435018 17.471501 -44.426694 -1.303958 -8.348815 20.024672 -2.255515 -4.330509 -5.351000 -10.331325 -0.909059 -43.609715 -2.011421 4.076276 8.540129 -0.827455 6.828676 4.212948 0.833900 -5.825400 -16.278700 1.406052 1.408729 -0.457710 19.104560 -6.035475 -11.563781 -0.617809 -7.613885 21.588156 -2.686150 27.256576 -8.605770 -0.063000 -1.619600 4.455500 2.442333 2.844678 -7.085510 0.615855 2.863710 -9.208237 -1.071761 1.814820 -0.145562 -1.403122 -1.590957 -7.197653 1.476663 -2.105469 9.779034 -0.979800 -0.905700 2.697900 13.222117 8.185788 0.940951 -101.956486 21.589467 -11.836019 3.451496 -12.295054 -0.145547 -1.095778 -0.519979 36.977407 12.542630 -15.289231 -3.259400 -7.125000 0.000000 0.000000 -9.777900 15.605400 6.889600 -13.001644 -7.289290 -0.626609 95.486457 10.308070 40.971646 -37.946361 52.639957 -16.973131 0.413432 -1.489303 -18.975263 -17.866684 -34.069898 9.769700 7.125000 0.000000 0.000000 17.582100 -62.884300 -7.760700 
-0.427918 17.446759 -44.183906 -1.237421 -8.689451 20.236614 -2.233219 -4.353920 -5.417069 -11.038543 -0.139471 -44.126980 -2.093645 3.586626 7.287042 -0.508678 5.625881 4.959111 0.776500 -5.626200 -15.703500 1.394080 1.358575 -0.425738 18.739527 -5.639720 -10.502492 -0.522607 -7.377094 20.999802 -2.575117 27.059611 -7.812555 -0.105500 -2.093900 5.765300 2.295316 2.922997 -7.937140 0.555006 2.939031 -8.963778 -1.079073 1.844474 0.832020 -1.452822 -1.643608 -7.445358 1.534640 -2.167072 9.610924 -0.945300 -0.938900 2.618000 13.240958 8.243980 0.998834 -102.052727 21.873300 -11.107581 3.530386 -12.580601 -0.171572 -1.079785 -0.545749 35.659732 12.609351 -15.098876 -3.233100 -7.125000 0.000000 0.000000 -9.736500 15.790500 6.820100 -13.037528 -7.373730 -0.655452 95.459592 11.406302 41.202890 -38.808617 53.196579 -17.584959 0.431484 -1.485494 -19.005639 -17.951451 -34.272326 9.880400 7.125000 0.000000 0.000000 17.634100 -63.096500 -7.872200 
